HIERARCHY
ROOT hip
{
  OFFSET 0 0 0
  CHANNELS 6 Xposition Yposition Zposition Zrotation Yrotation Xrotation
  JOINT abdomen
  {
    OFFSET 0 20.6881 -0.73152
    CHANNELS 3 Zrotation Xrotation Yrotation
    JOINT chest
    {
      OFFSET 0 11.7043 -0.48768
      CHANNELS 3 Zrotation Xrotation Yrotation
      JOINT neck
      {
        OFFSET 0 22.1894 -2.19456
        CHANNELS 3 Zrotation Xrotation Yrotation
        JOINT head
        {
          OFFSET -0.24384 7.07133 1.2192
          CHANNELS 3 Zrotation Xrotation Yrotation
          JOINT leftEye
          {
            OFFSET 4.14528 8.04674 8.04672
            CHANNELS 3 Zrotation Xrotation Yrotation
            End Site
            {
              OFFSET 1 0 0
            }
          }
          JOINT rightEye
          {
            OFFSET -3.6576 8.04674 8.04672
            CHANNELS 3 Zrotation Xrotation Yrotation
            End Site
            {
              OFFSET 1 0 0
            }
          }
        }
      }
      JOINT rCollar
      {
        OFFSET -2.68224 19.2634 -4.8768
        CHANNELS 3 Zrotation Xrotation Yrotation
        JOINT rShldr
        {
          OFFSET -8.77824 -1.95073 1.46304
          CHANNELS 3 Zrotation Xrotation Yrotation
          JOINT rForeArm
          {
            OFFSET -28.1742 -1.7115 0.48768
            CHANNELS 3 Zrotation Xrotation Yrotation
            JOINT rHand
            {
              OFFSET -22.5879 0.773209 7.07136
              CHANNELS 3 Zrotation Xrotation Yrotation
              JOINT rThumb1
              {
                OFFSET -1.2192 -0.487915 3.41376
                CHANNELS 3 Zrotation Xrotation Yrotation
                JOINT rThumb2
                {
                  OFFSET -3.37035 -0.52449 3.41376
                  CHANNELS 3 Zrotation Xrotation Yrotation
                  End Site
                  {
                    OFFSET -1.78271 -1.18214 1.43049
                  }
                }
              }
              JOINT rIndex1
              {
                OFFSET -7.75947 0.938293 5.60832
                CHANNELS 3 Zrotation Xrotation Yrotation
                JOINT rIndex2
                {
                  OFFSET -2.54057 -0.884171 1.56538
                  CHANNELS 3 Zrotation Xrotation Yrotation
                  End Site
                  {
                    OFFSET -1.62519 -0.234802 1.16502
                  }
                }
              }
              JOINT rMid1
              {
                OFFSET -8.24714 1.18213 3.41376
                CHANNELS 3 Zrotation Xrotation Yrotation
                JOINT rMid2
                {
                  OFFSET -3.10165 -0.590103 1.0647
                  CHANNELS 3 Zrotation Xrotation Yrotation
                  End Site
                  {
                    OFFSET -2.48547 -0.328903 0.83742
                  }
                }
              }
              JOINT rRing1
              {
                OFFSET -8.82822 0.546677 1.51678
                CHANNELS 3 Zrotation Xrotation Yrotation
                JOINT rRing2
                {
                  OFFSET -2.60934 -0.819778 -0.0198488
                  CHANNELS 3 Zrotation Xrotation Yrotation
                  End Site
                  {
                    OFFSET -2.33842 -0.294052 0.168128
                  }
                }
              }
              JOINT rPinky1
              {
                OFFSET -8.27202 -0.0477905 -0.4584
                CHANNELS 3 Zrotation Xrotation Yrotation
                JOINT rPinky2
                {
                  OFFSET -1.82734 -0.647385 -0.700984
                  CHANNELS 3 Zrotation Xrotation Yrotation
                  End Site
                  {
                    OFFSET -1.69225 -0.51767 -0.607171
                  }
                }
              }
            }
          }
        }
      }
      JOINT lCollar
      {
        OFFSET 2.68224 19.2634 -4.8768
        CHANNELS 3 Zrotation Xrotation Yrotation
        JOINT lShldr
        {
          OFFSET 8.77824 -1.95073 1.46304
          CHANNELS 3 Zrotation Xrotation Yrotation
          JOINT lForeArm
          {
            OFFSET 28.1742 -1.7115 0.48768
            CHANNELS 3 Zrotation Xrotation Yrotation
            JOINT lHand
            {
              OFFSET 22.5879 0.773209 7.07136
              CHANNELS 3 Zrotation Xrotation Yrotation
              JOINT lThumb1
              {
                OFFSET 1.2192 -0.487915 3.41376
                CHANNELS 3 Zrotation Xrotation Yrotation
                JOINT lThumb2
                {
                  OFFSET 3.37035 -0.52449 3.41376
                  CHANNELS 3 Zrotation Xrotation Yrotation
                  End Site
                  {
                    OFFSET 1.78271 -1.18214 1.43049
                  }
                }
              }
              JOINT lIndex1
              {
                OFFSET 7.75947 0.938293 5.60832
                CHANNELS 3 Zrotation Xrotation Yrotation
                JOINT lIndex2
                {
                  OFFSET 2.54057 -0.884171 1.56538
                  CHANNELS 3 Zrotation Xrotation Yrotation
                  End Site
                  {
                    OFFSET 1.62519 -0.234802 1.16502
                  }
                }
              }
              JOINT lMid1
              {
                OFFSET 8.24714 1.18213 3.41376
                CHANNELS 3 Zrotation Xrotation Yrotation
                JOINT lMid2
                {
                  OFFSET 3.10165 -0.590103 1.0647
                  CHANNELS 3 Zrotation Xrotation Yrotation
                  End Site
                  {
                    OFFSET 2.48547 -0.328903 0.83742
                  }
                }
              }
              JOINT lRing1
              {
                OFFSET 8.82822 0.546677 1.51678
                CHANNELS 3 Zrotation Xrotation Yrotation
                JOINT lRing2
                {
                  OFFSET 2.60934 -0.819778 -0.0198488
                  CHANNELS 3 Zrotation Xrotation Yrotation
                  End Site
                  {
                    OFFSET 2.33842 -0.294052 0.168128
                  }
                }
              }
              JOINT lPinky1
              {
                OFFSET 8.27202 -0.0477905 -0.4584
                CHANNELS 3 Zrotation Xrotation Yrotation
                JOINT lPinky2
                {
                  OFFSET 1.82734 -0.647385 -0.700984
                  CHANNELS 3 Zrotation Xrotation Yrotation
                  End Site
                  {
                    OFFSET 1.69225 -0.51767 -0.607171
                  }
                }
              }
            }
          }
        }
      }
    }
  }
  JOINT rButtock
  {
    OFFSET -8.77824 4.35084 1.2192
    CHANNELS 3 Zrotation Xrotation Yrotation
    JOINT rThigh
    {
      OFFSET 0 -1.70687 -2.19456
      CHANNELS 3 Zrotation Xrotation Yrotation
      JOINT rShin
      {
        OFFSET 0 -36.8199 0.73152
        CHANNELS 3 Zrotation Xrotation Yrotation
        JOINT rFoot
        {
          OFFSET 0.73152 -45.1104 -5.12064
          CHANNELS 3 Zrotation Xrotation Yrotation
          End Site
          {
            OFFSET -1.1221 -3.69964 12.103
          }
        }
      }
    }
  }
  JOINT lButtock
  {
    OFFSET 8.77824 4.35084 1.2192
    CHANNELS 3 Zrotation Xrotation Yrotation
    JOINT lThigh
    {
      OFFSET 0 -1.70687 -2.19456
      CHANNELS 3 Zrotation Xrotation Yrotation
      JOINT lShin
      {
        OFFSET 0 -36.8199 0.73152
        CHANNELS 3 Zrotation Xrotation Yrotation
        JOINT lFoot
        {
          OFFSET -0.73152 -45.1104 -5.12064
          CHANNELS 3 Zrotation Xrotation Yrotation
          End Site
          {
            OFFSET 1.1221 -3.69964 12.103
          }
        }
      }
    }
  }
}
MOTION
Frames:	7
Frame Time:	0.00833333
43.8532 85.507 -174.652 0.0 0.0 0.0 2.23594 -0.000462148 0.0604523 0.615898 0.00896913 0.106608 -2.66198e-14 7.95139e-16 -3.72721e-16 -7.85106e-14 3.18055e-15 -9.97029e-16 -0.0 0.0 0.0 -0.0 0.0 0.0 -1.3668e-14 3.33896e-17 -4.96962e-17 -2.76433e-13 6.70898e-16 -3.57812e-15 -4.7758e-12 1.44934e-12 -3.81667e-14 -5.45517e-11 -1.30656e-12 -7.98319e-13 -1.28691e-10 3.04509e-13 -1.80337e-12 -2.22246e-10 5.27972e-13 -3.1233e-12 -1.28685e-10 3.07719e-13 -1.81292e-12 7.73091 5.47488 0.417314 -1.28691e-10 3.04538e-13 -1.80337e-12 2.90554 0.965183 0.102902 -1.2868e-10 3.04936e-13 -1.80894e-12 10.2786 0.731801 0.0259123 -1.28695e-10 3.06128e-13 -1.80656e-12 2.22167 -0.733487 -0.20892 -1.37651e-14 2.85365e-17 -2.48481e-16 -2.81122e-13 8.26199e-16 -5.56597e-15 -4.76865e-12 -1.4072e-12 -1.59028e-14 -5.45985e-11 1.56113e-12 -8.23764e-13 -1.28762e-10 3.30109e-13 -1.8161e-12 -2.22343e-10 5.69319e-13 -3.11217e-12 -1.28768e-10 3.31573e-13 -1.80656e-12 -7.73091 5.47488 -0.417314 -1.28762e-10 3.30778e-13 -1.80974e-12 -2.90554 0.965183 -0.102902 -1.2877e-10 3.30579e-13 -1.80894e-12 -10.2786 0.731801 -0.0259123 -1.28758e-10 3.30778e-13 -1.8161e-12 -2.22167 -0.733487 0.20892 -2.03217e-16 0.0 -3.88251e-19 2.21177 -7.80172 -0.224255 0.00521962 8.55973 0.135865 -0.548904 -0.766609 0.0462433 2.03217e-16 0.0 3.88251e-19 1.18917 -1.92859 -0.00262839 0.00905419 -2.07859 0.0746555 0.508458 3.99849 -0.139789
41.9487 85.5409 -174.739 -4.3774 -10.8498 0.8167 3.52063 -1.32125 0.744752 -0.278597 1.17913 0.302141 -0.353523 4.78259 -0.652007 2.03188 -7.02727 -0.868133 -0.0 0.0 0.0 -0.0 0.0 0.0 -2.18878e-15 -2.6618e-16 -7.47993e-14 21.8295 6.23496 -1.76538 -4.11572 -1.84979 6.45012 1.68482e-05 0.0911503 0.0128103 -3.45709e-11 -4.03526e-10 -2.79285e-10 -5.97147e-11 -6.98515e-10 -4.83591e-10 -3.45659e-11 -4.03523e-10 -2.79294e-10 7.73091 5.47488 0.417314 -3.45717e-11 -4.03526e-10 -2.79284e-10 2.90554 0.965183 0.102902 -3.45614e-11 -4.03526e-10 -2.79289e-10 10.2786 0.731801 0.0259123 -3.45756e-11 -4.03525e-10 -2.79287e-10 2.22167 -0.733487 -0.20892 -2.30264e-15 -2.69863e-16 -7.50288e-14 -20.8487 8.09835 -0.925645 2.39694 -0.875959 -3.94336 -0.0025065 -1.11086 0.156015 -2.993e-11 1.27894e-10 -1.6694e-10 -5.10909e-11 2.2191e-10 -2.88422e-10 -2.99359e-11 1.27894e-10 -1.66929e-10 -7.73091 5.47488 -0.417314 -2.99297e-11 1.27892e-10 -1.66934e-10 -2.90554 0.965183 -0.102902 -2.99358e-11 1.27892e-10 -1.66933e-10 -10.2786 0.731801 -0.0259123 -2.99232e-11 1.27892e-10 -1.66941e-10 -2.22167 -0.733487 0.20892 -2.03217e-16 0.0 -3.88251e-19 3.84097 -5.00517 0.186792 0.00922642 8.81609 0.191421 -1.20218 -6.89742 -5.40037 2.03217e-16 0.0 3.88251e-19 5.16861 -4.34625 -0.328301 0.00260248 -1.98277 0.0204359 0.57911 2.7208 3.01816
41.9288 85.5377 -174.754 -4.3906 -11.0181 0.8661 4.91564 -2.70128 1.46531 -1.23432 2.41676 0.50832 -0.607644 9.82899 -1.35568 3.94344 -14.4472 -1.8283 -0.0 0.0 0.0 -0.0 0.0 0.0 1.14967e-14 -1.46977e-16 -1.56478e-13 45.3343 12.8036 -3.69691 -8.01729 -3.72743 13.2909 -9.73703e-06 0.188009 0.0264229 5.49807e-11 -8.21947e-10 -5.78005e-10 9.49113e-11 -1.42281e-09 -1.0008e-09 5.49849e-11 -8.21944e-10 -5.78015e-10 7.73091 5.47488 0.417314 5.49793e-11 -8.21948e-10 -5.78004e-10 2.90554 0.965183 0.102902 5.49892e-11 -8.21948e-10 -5.78008e-10 10.2786 0.731801 0.0259123 5.4975e-11 -8.21947e-10 -5.78008e-10 2.22167 -0.733487 -0.20892 1.13643e-14 -1.49392e-16 -1.56742e-13 -42.5891 16.6607 -1.97762 4.80281 -1.78953 -8.11954 0.00143118 -2.28812 0.321555 6.24558e-11 2.53496e-10 -3.41533e-10 1.09048e-10 4.399e-10 -5.90081e-10 6.24494e-11 2.53494e-10 -3.41521e-10 -7.73091 5.47488 -0.417314 6.24563e-11 2.53492e-10 -3.41527e-10 -2.90554 0.965183 -0.102902 6.2452e-11 2.53491e-10 -3.41527e-10 -10.2786 0.731801 -0.0259123 6.24658e-11 2.53491e-10 -3.41536e-10 -2.22167 -0.733487 0.20892 -2.03217e-16 0.0 -3.88251e-19 5.52299 -2.0362 0.618595 0.0128839 9.08438 0.250227 -3.18549 -13.1896 -11.3879 2.03217e-16 0.0 3.88251e-19 9.34543 -6.8916 -0.677323 -0.00400335 -1.88223 -0.0367779 0.805754 1.37544 6.3477
41.8964 85.5373 -174.77 -4.4274 -11.2533 0.9097 6.18483 -3.96046 2.11782 -2.09159 3.51924 0.694324 -0.725155 14.3402 -2.01192 5.41814 -21.0617 -2.77002 -0.0 0.0 0.0 -0.0 0.0 0.0 2.07697e-14 -8.65318e-16 -2.24299e-13 66.6935 18.6318 -5.55687 -11.1197 -5.26864 19.4256 -7.17337e-05 0.273451 0.0384312 1.53669e-10 -1.21119e-09 -8.34247e-10 2.65348e-10 -2.0966e-09 -1.44453e-09 1.53673e-10 -1.21118e-09 -8.34257e-10 7.73091 5.47488 0.417314 1.53668e-10 -1.21119e-09 -8.34245e-10 2.90554 0.965183 0.102902 1.53677e-10 -1.21119e-09 -8.34248e-10 10.2786 0.731801 0.0259123 1.53663e-10 -1.21119e-09 -8.34249e-10 2.22167 -0.733487 -0.20892 2.06223e-14 -8.66663e-16 -2.24589e-13 -61.6968 24.2684 -3.01598 6.83163 -2.57814 -11.8409 0.0106555 -3.33248 0.46875 1.67734e-10 3.83022e-10 -4.97189e-10 2.91414e-10 6.64592e-10 -8.59041e-10 1.67727e-10 3.83018e-10 -4.97175e-10 -7.73091 5.47488 -0.417314 1.67735e-10 3.83015e-10 -4.97183e-10 -2.90554 0.965183 -0.102902 1.67732e-10 3.83014e-10 -4.97183e-10 -10.2786 0.731801 -0.0259123 1.67747e-10 3.83014e-10 -4.97192e-10 -2.22167 -0.733487 0.20892 -2.03217e-16 0.0 -3.88251e-19 6.97931 0.587885 1.00265 0.0157285 9.32877 0.30278 -6.11298 -18.4601 -17.0797 2.03217e-16 0.0 3.88251e-19 13.0441 -9.18042 -0.989491 -0.00975663 -1.79112 -0.0879849 1.14148 0.174385 9.3232
41.8808 85.5318 -174.788 -4.3629 -11.5388 0.9545 7.07521 -4.91961 2.59625 -2.68589 4.28404 0.828865 -0.739348 17.5206 -2.49701 6.28849 -25.6817 -3.51006 -0.0 0.0 0.0 -0.0 0.0 0.0 1.90118e-14 -3.67752e-15 -2.57476e-13 81.8273 22.6771 -6.9927 -13.0812 -6.23643 23.723 -0.000133847 0.330353 0.0464287 2.75201e-10 -1.52747e-09 -9.84289e-10 4.75311e-10 -2.64415e-09 -1.70453e-09 2.75204e-10 -1.52747e-09 -9.84299e-10 7.73091 5.47488 0.417314 2.75199e-10 -1.52747e-09 -9.84286e-10 2.90554 0.965183 0.102902 2.75207e-10 -1.52747e-09 -9.84289e-10 10.2786 0.731801 0.0259123 2.75194e-10 -1.52747e-09 -9.84289e-10 2.22167 -0.733487 -0.20892 1.88579e-14 -3.67829e-15 -2.57774e-13 -74.8605 29.5161 -3.78735 8.17171 -3.10214 -14.4147 0.0201063 -4.04468 0.569399 3.05244e-10 5.22355e-10 -6.05501e-10 5.29349e-10 9.06038e-10 -1.04625e-09 3.05237e-10 5.2235e-10 -6.05485e-10 -7.73091 5.47488 -0.417314 3.05245e-10 5.22347e-10 -6.05495e-10 -2.90554 0.965183 -0.102902 3.05243e-10 5.22346e-10 -6.05495e-10 -10.2786 0.731801 -0.0259123 3.05258e-10 5.22346e-10 -6.05504e-10 -2.22167 -0.733487 0.20892 -2.03217e-16 0.0 -3.88251e-19 7.95681 2.35025 1.26874 0.0175826 9.51338 0.339531 -8.80572 -21.843 -21.2872 2.03217e-16 0.0 3.88251e-19 15.6067 -10.829 -1.20088 -0.0137542 -1.72361 -0.124187 1.45723 -0.683084 11.4167
41.8625 85.494 -174.819 -4.3394 -11.7258 1.0733 7.4055 -5.47337 2.84002 -2.90666 4.5749 0.893813 -0.714267 18.8553 -2.70603 6.56044 -27.5357 -3.85045 -0.0 0.0 0.0 -0.0 0.0 0.0 -1.53171e-15 -8.70587e-15 -2.39732e-13 87.8224 24.2763 -7.65514 -13.8037 -6.58502 25.405 -0.000154674 0.344134 0.0483656 4.58769e-10 -1.79342e-09 -1.00891e-09 7.92515e-10 -3.10467e-09 -1.74766e-09 4.58772e-10 -1.79341e-09 -1.00892e-09 7.73091 5.47488 0.417314 4.58766e-10 -1.79342e-09 -1.0089e-09 2.90554 0.965183 0.102902 4.58775e-10 -1.79342e-09 -1.0089e-09 10.2786 0.731801 0.0259123 4.58763e-10 -1.79342e-09 -1.0089e-09 2.22167 -0.733487 -0.20892 -1.68156e-15 -8.70698e-15 -2.40003e-13 -80.0396 31.4652 -4.00146 8.64933 -3.2844 -15.36 0.0239174 -4.27306 0.60174 5.26826e-10 7.23519e-10 -6.53474e-10 9.12472e-10 1.25422e-09 -1.12935e-09 5.26818e-10 7.23514e-10 -6.53455e-10 -7.73091 5.47488 -0.417314 5.26826e-10 7.2351e-10 -6.53467e-10 -2.90554 0.965183 -0.102902 5.26824e-10 7.23509e-10 -6.53467e-10 -10.2786 0.731801 -0.0259123 5.26838e-10 7.2351e-10 -6.53476e-10 -2.22167 -0.733487 0.20892 -2.03217e-16 0.0 -3.88251e-19 8.29919 2.89303 1.36927 0.018632 9.61951 0.354102 -9.96106 -23.0618 -22.9185 2.03217e-16 0.0 3.88251e-19 16.6079 -11.5885 -1.26252 -0.0154622 -1.68945 -0.139439 1.61862 -1.08833 12.2785
41.8546 85.4398 -174.859 -4.3055 -11.8566 1.2436 7.32818 -5.73741 2.91468 -2.85868 4.52731 0.908696 -0.69042 18.8728 -2.70561 6.47384 -27.4183 -3.86528 -0.0 0.0 0.0 -0.0 0.0 0.0 -3.53344e-14 -1.53513e-14 -1.8573e-13 87.176 24.145 -7.70575 -13.7196 -6.5438 25.2081 -0.000139216 0.327265 0.0459946 6.85218e-10 -2.02094e-09 -9.42828e-10 1.18385e-09 -3.49877e-09 -1.63394e-09 6.8522e-10 -2.02093e-09 -9.42836e-10 7.73091 5.47488 0.417314 6.85214e-10 -2.02094e-09 -9.42821e-10 2.90554 0.965183 0.102902 6.85222e-10 -2.02094e-09 -9.42822e-10 10.2786 0.731801 0.0259123 6.85212e-10 -2.02094e-09 -9.42817e-10 2.22167 -0.733487 -0.20892 -3.54725e-14 -1.53533e-14 -1.85951e-13 -79.5975 31.0639 -3.76317 8.53532 -3.23187 -15.1412 0.0224933 -4.15676 0.585293 8.06605e-10 9.66557e-10 -6.58063e-10 1.39609e-09 1.67468e-09 -1.1376e-09 8.06596e-10 9.66551e-10 -6.58041e-10 -7.73091 5.47488 -0.417314 8.06604e-10 9.66548e-10 -6.58056e-10 -2.90554 0.965183 -0.102902 8.06602e-10 9.66548e-10 -6.58055e-10 -10.2786 0.731801 -0.0259123 8.06613e-10 9.66549e-10 -6.58063e-10 -2.22167 -0.733487 0.20892 -2.03217e-16 0.0 -3.88251e-19 8.19615 2.56553 1.35063 0.0192245 9.66933 0.352808 -9.73825 -22.875 -22.579 2.03217e-16 0.0 3.88251e-19 16.5 -11.713 -1.2157 -0.015578 -1.67909 -0.139726 1.63793 -1.1766 12.2587
